# xmcd
#
# Track frame offsets:
#	199
#	13645
#	28327
#
# Disc length: 569 seconds
#
# Revision: 0
# Processed by: cddbd v1.4PL0 Copyright (c) Steve Scherf et al.
# Submitted via: dBpowerAMP V4.0
#
DISCID=1d023703
DTITLE=Jerry Reed - Tryin' Stuff On
DYEAR=1900
DGENRE=Comedy
TTITLE0=Diggin' Up Bones (Tryin' Stuff On)
TTITLE1=Diggin' Up Bones (Tryin' Stuff On) W Intro
TTITLE2=The Bird
EXTD=
EXTT0=
EXTT1=
EXTT2=
PLAYORDER=
